<svg width="202" height="202" viewBox="0 0 202 202" fill="none" xmlns="http://www.w3.org/2000/svg">
<g clip-path="url(#clip0_4_20)">
<path fill-rule="evenodd" clip-rule="evenodd" d="M96.7326 1.00225C106.347 0.95371 115.582 1.51298 124.264 3.78384C146.831 9.68681 165.997 25.7263 175.049 45.2566C178.984 53.7428 181.998 64.0946 181.998 75.8562C181.998 88.69 181.906 99.3985 181.732 112.526C181.594 122.873 182.216 134.485 179.06 144.134C170.351 170.766 149.448 191.704 118.919 198.253C97.3639 202.877 72.8913 197.953 56.3732 187.633C40.7696 177.885 28.7441 163.373 23.2299 144.896C20.136 134.533 19.9084 122.394 20.0222 111.261C20.1404 99.6876 20.2899 89.6566 20.2899 76.616C20.2899 64.236 23.366 54.0024 26.973 46.2696C30.6736 38.3343 36.2548 30.6501 42.7438 24.268C54.6288 12.5782 72.4094 1.12888 96.7326 1.00225ZM149.122 23.7636C137.17 13.8318 118.856 5.7318 97.268 7.07195C59.4314 9.42723 34.6398 33.1826 28.3069 66.5027C42.3646 43.4817 64.7895 24.8294 101.546 24.5234C132.45 24.2659 155.914 39.9825 168.636 58.4111C170.487 61.0935 171.699 64.2212 174.251 66.2494C171.188 47.5211 161.741 34.2463 149.122 23.7636ZM153.398 51.0751C140.244 38.6952 121.172 29.0693 95.3965 30.8442C67.3347 32.7774 47.4594 48.2513 36.5938 66.5027C32.6099 73.1928 29.2996 80.953 28.3069 89.5152C36.4957 77.1014 46.0095 66.1544 59.8485 58.4111C72.7976 51.1638 91.9791 45.4951 111.97 48.2957C142.414 52.5567 160.347 68.8474 173.981 89.5152C171.882 73.8302 163.746 60.8128 153.398 51.0751ZM93.7948 54.3633C71.535 56.2838 51.9765 68.6722 41.1399 82.9411C37.9925 87.0818 31.5369 96.0302 31.5168 100.135C31.5057 102.309 33.7943 105.677 34.9922 107.975C41.7021 120.851 51.4233 129.943 63.3262 136.804C67.8098 139.39 74.3434 142.414 79.3624 143.885C98.9187 149.617 122.765 145.537 137.9 137.058C149.024 130.821 157.902 122.573 164.897 111.517C166.767 108.56 170.902 103.05 170.777 99.8839C170.688 97.6489 167.677 93.0966 165.966 90.2728C152.874 68.6574 130.996 53.9517 97.8078 54.3611C96.5698 54.378 94.754 54.2788 93.7948 54.3633ZM28.0415 112.021C31.8447 134.96 47.5799 153.884 67.8678 163.105C74.9346 166.315 83.7011 168.82 91.9233 169.679C116.142 172.214 136.376 164.152 150.193 152.232C162.261 141.819 171.145 129.253 173.981 111.01C158.268 133.687 136.363 155.132 95.6641 152.736C62.1974 150.767 42.3066 133.138 29.1099 111.261C28.7687 111.247 28.7397 110.939 28.3091 111.008C28.2043 111.352 27.9522 111.489 28.0415 112.021ZM51.8293 176.002C64.1247 186.174 79.8041 193.449 101.011 193.451C122.044 193.453 138.038 185.896 149.925 175.749C161.864 165.557 171.038 152.774 173.981 134.529C164.534 149.136 152.024 162.132 134.69 169.679C115.078 178.218 88.7312 178.117 69.7393 170.69C50.9326 163.337 37.4973 150.153 28.3069 134.276C28.2913 134.122 28.2668 133.976 28.0392 134.023C30.513 152.27 40.3124 166.471 51.8293 176.002Z" fill="#F35252"/>
</g>
<defs>
<clipPath id="clip0_4_20">
<rect width="162" height="199" fill="white" transform="translate(20 1)"/>
</clipPath>
</defs>
</svg>
