<svg width="557" height="202" viewBox="0 0 557 202" fill="none" xmlns="http://www.w3.org/2000/svg">
<g clip-path="url(#clip0_4_14)">
<g clip-path="url(#clip1_4_14)">
<path fill-rule="evenodd" clip-rule="evenodd" d="M81.5762 33.0014C88.1637 32.9682 94.4913 33.3504 100.44 34.9023C115.903 38.9365 129.035 49.8982 135.237 63.2455C137.934 69.0451 139.999 76.1198 139.999 84.1579C139.999 92.9287 139.936 100.247 139.817 109.218C139.722 116.29 140.148 124.226 137.986 130.82C132.019 149.021 117.696 163.33 96.7778 167.806C82.0087 170.966 65.2404 167.601 53.9225 160.548C43.2312 153.886 34.9914 143.968 31.2132 131.341C29.0933 124.259 28.9374 115.963 29.0153 108.354C29.0963 100.445 29.1987 93.5892 29.1987 84.6771C29.1987 76.2164 31.3064 69.2225 33.7779 63.9379C36.3135 58.5147 40.1376 53.2632 44.5838 48.9016C52.7272 40.9125 64.9103 33.0879 81.5762 33.0014ZM117.473 48.5569C109.283 41.7693 96.735 36.2336 81.943 37.1495C56.0179 38.7591 39.0311 54.994 34.6919 77.7655C44.324 62.0325 59.6892 49.2852 84.8745 49.0761C106.049 48.9001 122.127 59.6412 130.843 72.2356C132.112 74.0688 132.942 76.2063 134.69 77.5924C132.592 64.7932 126.119 55.7209 117.473 48.5569ZM120.403 67.222C111.39 58.7613 98.3215 52.1829 80.6606 53.3959C61.4331 54.7171 47.8149 65.2922 40.37 77.7655C37.6402 82.3376 35.372 87.6411 34.6919 93.4926C40.3027 85.0088 46.8214 77.5275 56.3037 72.2356C65.1762 67.2826 78.3191 63.4085 92.0168 65.3225C112.877 68.2346 125.164 79.3679 134.505 93.4926C133.067 82.7732 127.493 73.8769 120.403 67.222ZM79.5632 69.4692C64.3111 70.7817 50.9099 79.2482 43.4849 88.9998C41.3283 91.8296 36.905 97.9451 36.8913 100.75C36.8836 102.236 38.4518 104.538 39.2725 106.109C43.87 114.908 50.5309 121.122 58.6865 125.811C61.7587 127.578 66.2354 129.645 69.6744 130.65C83.074 134.567 99.4128 131.779 109.783 125.984C117.405 121.722 123.489 116.085 128.282 108.529C129.562 106.508 132.396 102.742 132.311 100.579C132.249 99.0513 130.186 95.9402 129.014 94.0104C120.043 79.2381 105.053 69.1879 82.3129 69.4677C81.4646 69.4793 80.2205 69.4115 79.5632 69.4692ZM34.51 108.874C37.1159 124.55 47.8974 137.484 61.7984 143.785C66.6404 145.979 72.6471 147.691 78.2809 148.278C94.875 150.01 108.739 144.501 118.206 136.354C126.475 129.238 132.563 120.65 134.505 108.183C123.739 123.681 108.73 138.336 80.8441 136.699C57.9132 135.353 44.2842 123.306 35.2421 108.354C35.0083 108.344 34.9884 108.134 34.6934 108.181C34.6216 108.416 34.4489 108.51 34.51 108.874ZM50.8091 152.599C59.2337 159.551 69.977 164.523 84.5077 164.524C98.9192 164.526 109.878 159.361 118.023 152.426C126.203 145.461 132.489 136.725 134.505 124.256C128.032 134.238 119.461 143.12 107.584 148.278C94.1459 154.114 76.0937 154.044 63.0808 148.969C50.1946 143.944 40.989 134.934 34.6919 124.083C34.6812 123.978 34.6644 123.878 34.5085 123.91C36.2035 136.38 42.9178 146.086 50.8091 152.599Z" fill="#F35252"/>
</g>
<path d="M175 127V74H182.4L182.8 87.4L182 87.1C182.667 82.5667 184.1 79.2667 186.3 77.2C188.567 75.0667 191.567 74 195.3 74H200.5V82H195.4C192.733 82 190.5 82.5 188.7 83.5C186.967 84.4333 185.633 85.8667 184.7 87.8C183.833 89.6667 183.4 92.0667 183.4 95V127H175ZM223.587 128.2C218.587 128.2 214.253 127.067 210.587 124.8C206.987 122.533 204.187 119.333 202.187 115.2C200.253 111 199.287 106.1 199.287 100.5C199.287 94.9 200.253 90.0333 202.187 85.9C204.187 81.7667 206.953 78.5667 210.487 76.3C214.087 73.9667 218.32 72.8 223.187 72.8C227.787 72.8 231.853 73.9 235.387 76.1C238.92 78.2333 241.653 81.3667 243.587 85.5C245.587 89.6333 246.587 94.6667 246.587 100.6V103.1H208.087C208.42 108.767 209.92 113.033 212.587 115.9C215.32 118.767 218.987 120.2 223.587 120.2C227.053 120.2 229.887 119.4 232.087 117.8C234.353 116.133 235.92 113.967 236.787 111.3L245.787 112C244.387 116.733 241.72 120.633 237.787 123.7C233.92 126.7 229.187 128.2 223.587 128.2ZM208.087 95.7H237.387C236.987 90.5667 235.487 86.8 232.887 84.4C230.353 82 227.12 80.8 223.187 80.8C219.12 80.8 215.753 82.0667 213.087 84.6C210.487 87.0667 208.82 90.7667 208.087 95.7ZM270.765 128.2C266.165 128.2 262.165 127.067 258.765 124.8C255.432 122.533 252.865 119.333 251.065 115.2C249.265 111.067 248.365 106.167 248.365 100.5C248.365 94.8333 249.265 89.9333 251.065 85.8C252.865 81.6667 255.432 78.4667 258.765 76.2C262.165 73.9333 266.165 72.8 270.765 72.8C274.298 72.8 277.532 73.5667 280.465 75.1C283.398 76.5667 285.598 78.6667 287.065 81.4V56H295.465V127H287.865L287.565 119C286.098 121.867 283.865 124.133 280.865 125.8C277.865 127.4 274.498 128.2 270.765 128.2ZM272.465 120.2C275.598 120.2 278.232 119.4 280.365 117.8C282.565 116.2 284.232 113.933 285.365 111C286.498 108 287.065 104.5 287.065 100.5C287.065 96.3667 286.498 92.8333 285.365 89.9C284.232 86.9667 282.565 84.7333 280.365 83.2C278.232 81.6 275.598 80.8 272.465 80.8C267.798 80.8 264.065 82.5667 261.265 86.1C258.532 89.5667 257.165 94.3667 257.165 100.5C257.165 106.567 258.532 111.367 261.265 114.9C264.065 118.433 267.798 120.2 272.465 120.2ZM327.784 128.2C324.118 128.2 320.851 127.4 317.984 125.8C315.118 124.133 312.918 121.867 311.384 119L311.084 127H303.484V56H311.884V81.4C313.218 79.2 315.284 77.2333 318.084 75.5C320.884 73.7 324.118 72.8 327.784 72.8C332.451 72.8 336.484 73.9333 339.884 76.2C343.284 78.4667 345.918 81.6667 347.784 85.8C349.651 89.9333 350.584 94.8333 350.584 100.5C350.584 106.167 349.651 111.067 347.784 115.2C345.918 119.333 343.284 122.533 339.884 124.8C336.484 127.067 332.451 128.2 327.784 128.2ZM327.284 120.2C331.751 120.2 335.284 118.433 337.884 114.9C340.484 111.367 341.784 106.567 341.784 100.5C341.784 94.3667 340.484 89.5667 337.884 86.1C335.284 82.5667 331.818 80.8 327.484 80.8C324.218 80.8 321.418 81.6 319.084 83.2C316.751 84.7333 314.951 86.9667 313.684 89.9C312.484 92.8333 311.884 96.3667 311.884 100.5C311.884 104.5 312.484 108 313.684 111C314.951 113.933 316.718 116.2 318.984 117.8C321.318 119.4 324.084 120.2 327.284 120.2ZM371.648 128.2C366.181 128.2 361.814 126.933 358.548 124.4C355.348 121.867 353.748 118.333 353.748 113.8C353.748 109.267 355.081 105.7 357.748 103.1C360.414 100.5 364.648 98.6667 370.448 97.6L389.248 94.1C389.248 89.6333 388.181 86.3 386.048 84.1C383.981 81.9 380.848 80.8 376.648 80.8C372.981 80.8 370.081 81.6333 367.948 83.3C365.814 84.9 364.348 87.2333 363.548 90.3L354.648 89.6C355.648 84.6 358.048 80.5667 361.848 77.5C365.714 74.3667 370.648 72.8 376.648 72.8C383.448 72.8 388.648 74.7333 392.248 78.6C395.848 82.4 397.648 87.6667 397.648 94.4V116.3C397.648 117.5 397.848 118.367 398.248 118.9C398.714 119.367 399.448 119.6 400.448 119.6H402.548V127C402.281 127.067 401.848 127.1 401.248 127.1C400.648 127.167 400.014 127.2 399.348 127.2C396.948 127.2 394.981 126.833 393.448 126.1C391.981 125.3 390.914 124.1 390.248 122.5C389.581 120.833 389.248 118.667 389.248 116L390.248 116.2C389.781 118.467 388.648 120.533 386.848 122.4C385.048 124.2 382.814 125.633 380.148 126.7C377.481 127.7 374.648 128.2 371.648 128.2ZM372.448 120.8C375.981 120.8 378.981 120.133 381.448 118.8C383.981 117.4 385.914 115.533 387.248 113.2C388.581 110.8 389.248 108.133 389.248 105.2V101.4L372.048 104.6C368.448 105.267 365.948 106.3 364.548 107.7C363.214 109.033 362.548 110.8 362.548 113C362.548 115.467 363.414 117.4 365.148 118.8C366.948 120.133 369.381 120.8 372.448 120.8ZM406.035 127V74H413.435L413.835 87.4L413.035 87.1C413.702 82.5667 415.135 79.2667 417.335 77.2C419.602 75.0667 422.602 74 426.335 74H431.535V82H426.435C423.768 82 421.535 82.5 419.735 83.5C418.002 84.4333 416.668 85.8667 415.735 87.8C414.868 89.6667 414.435 92.0667 414.435 95V127H406.035ZM434.898 127V56H443.298V102.5L469.098 74H480.298L459.398 96.5L481.198 127H470.998L453.698 102.2L443.298 113.2V127H434.898Z" fill="white"/>
</g>
<defs>
<clipPath id="clip0_4_14">
<rect width="557" height="202" fill="white"/>
</clipPath>
<clipPath id="clip1_4_14">
<rect width="111" height="136" fill="white" transform="translate(29 33)"/>
</clipPath>
</defs>
</svg>
